<?xml version="1.0" standalone="no"?>
<!DOCTYPE svg PUBLIC "-//W3C//DTD SVG 20010904//EN"
 "http://www.w3.org/TR/2001/REC-SVG-20010904/DTD/svg10.dtd">
<svg version="1.0" xmlns="http://www.w3.org/2000/svg"
 width="500.000000pt" height="500.000000pt" viewBox="0 0 500.000000 500.000000"
 preserveAspectRatio="xMidYMid meet">

<g transform="translate(0.000000,500.000000) scale(0.100000,-0.100000)"
fill="#000000" stroke="none">
<path d="M1330 2690 c0 -236 -3 -234 293 -238 l207 -3 0 40 0 41 -198 0 c-141
0 -201 3 -210 12 -8 8 -12 57 -12 155 l0 143 -40 0 -40 0 0 -150z"/>
<path d="M1880 2775 c0 -36 6 -81 14 -100 24 -57 53 -65 241 -65 l165 0 0 -28
c0 -50 -9 -52 -222 -52 l-198 0 0 -40 0 -40 183 0 c218 0 249 5 287 40 l30 28
0 161 0 161 -40 0 -40 0 0 -75 0 -75 -162 2 -163 3 -3 73 -3 72 -44 0 -45 0 0
-65z"/>
<path d="M2440 2645 l0 -195 40 0 40 0 0 80 0 80 90 0 90 0 0 -40 c0 -78 65
-119 188 -120 l52 0 0 40 0 40 -70 0 c-74 0 -90 11 -90 59 0 17 6 21 35 21 99
0 153 86 109 171 -26 52 -60 59 -284 59 l-200 0 0 -195z m410 100 c6 -8 9 -23
5 -35 -6 -19 -14 -20 -171 -20 l-164 0 0 35 0 35 159 0 c126 0 161 -3 171 -15z"/>
<path d="M3000 2800 l0 -40 60 0 60 0 0 -115 0 -115 -60 0 -60 0 0 -40 0 -40
165 0 165 0 0 40 0 40 -60 0 -60 0 0 115 0 115 60 0 60 0 0 40 0 40 -165 0
-165 0 0 -40z"/>
<path d="M3439 2817 c-50 -33 -59 -59 -59 -172 0 -82 4 -106 20 -132 33 -55
46 -58 273 -61 l207 -4 0 41 0 41 -194 0 c-154 0 -196 3 -205 14 -8 9 -11 48
-9 112 l3 99 203 3 202 2 0 40 0 40 -204 0 c-195 0 -204 -1 -237 -23z"/>
<path d="M1322 2207 c5 -235 7 -237 308 -237 l200 0 0 40 0 40 -195 0 c-230 0
-225 -3 -224 115 0 39 0 98 0 133 l-1 62 -46 0 -46 0 4 -153z"/>
<path d="M1881 2275 c4 -77 7 -87 32 -112 l27 -28 178 -5 c171 -5 177 -6 180
-26 2 -12 -4 -29 -13 -38 -14 -14 -45 -16 -211 -16 l-194 0 0 -40 0 -40 200 0
c225 0 256 7 290 62 18 29 20 50 20 181 l0 147 -45 0 -45 0 0 -75 0 -75 -153
0 c-106 0 -157 4 -165 12 -7 7 -12 39 -12 75 l0 63 -46 0 -46 0 3 -85z"/>
<path d="M2440 2165 l0 -195 40 0 40 0 0 80 0 81 88 -3 87 -3 5 -46 c10 -82
54 -109 175 -109 l75 0 0 40 0 40 -68 0 c-75 0 -92 9 -92 52 0 25 3 28 35 28
72 0 116 41 117 112 0 44 -24 85 -63 105 -17 9 -87 13 -231 13 l-208 0 0 -195z
m398 106 c8 -4 12 -19 10 -32 l-3 -24 -162 -3 -163 -2 0 35 0 35 153 0 c83 0
158 -4 165 -9z"/>
<path d="M2990 2320 l0 -40 65 0 66 0 -3 -112 -3 -113 -62 -3 -63 -3 0 -39 0
-40 170 0 170 0 0 40 0 40 -60 0 -60 0 0 115 0 115 60 0 60 0 0 40 0 40 -170
0 -170 0 0 -40z"/>
<path d="M3438 2344 c-46 -25 -58 -61 -58 -179 0 -188 11 -195 305 -195 l205
0 0 40 0 40 -42 0 c-24 1 -109 1 -190 0 -89 -1 -156 3 -168 10 -18 10 -20 21
-20 103 0 59 4 97 12 105 9 9 69 12 210 12 l198 0 0 40 0 40 -212 0 c-169 -1
-219 -4 -240 -16z"/>
<path d="M1842 1743 l-2 -43 43 2 42 1 -37 4 c-34 4 -37 7 -41 41 l-4 37 -1
-42z"/>
<path d="M1981 1761 c8 -13 20 -33 26 -45 7 -11 13 -15 13 -8 0 8 10 28 22 45
l22 32 -25 -22 -25 -23 -23 23 -23 22 13 -24z"/>
<path d="M2110 1738 c0 -31 3 -39 10 -28 5 8 7 25 3 37 -4 20 -1 23 24 23 16
0 35 -6 42 -12 10 -11 11 -10 6 5 -5 12 -18 17 -46 17 l-39 0 0 -42z"/>
<path d="M2263 1740 c0 -25 2 -35 4 -22 2 12 2 32 0 45 -2 12 -4 2 -4 -23z"/>
<path d="M2334 1766 c-13 -33 0 -61 30 -64 16 -2 32 0 37 5 5 5 -6 7 -26 5
-34 -4 -35 -3 -35 28 0 31 2 32 34 28 19 -2 32 0 30 4 -9 14 -64 9 -70 -6z"/>
<path d="M2572 1740 c0 -39 1 -41 7 -15 l7 30 13 -24 13 -23 18 27 18 28 5
-34 c3 -29 4 -28 5 11 l1 45 -23 -27 -23 -26 -21 26 -21 27 1 -45z"/>
<path d="M2722 1755 c0 -16 2 -22 5 -12 2 9 2 23 0 30 -3 6 -5 -1 -5 -18z"/>
<path d="M2799 1750 c-4 -32 -7 -35 -36 -35 -17 0 -29 -3 -26 -7 7 -13 50 -9
62 6 7 8 11 27 9 43 -4 26 -4 26 -9 -7z"/>
<path d="M2877 1773 c-16 -16 -5 -32 25 -35 17 -2 33 -9 36 -17 3 -10 -4 -12
-31 -9 -20 2 -33 0 -31 -4 9 -15 64 -9 71 8 7 19 -13 34 -44 34 -13 0 -23 5
-23 11 0 7 13 10 34 7 19 -2 32 0 30 4 -6 10 -58 11 -67 1z"/>
<path d="M3013 1740 c0 -25 2 -35 4 -22 2 12 2 32 0 45 -2 12 -4 2 -4 -23z"/>
<path d="M3084 1765 c-4 -8 -3 -26 0 -40 5 -20 13 -25 36 -25 16 0 31 3 33 8
3 4 -9 7 -26 7 -27 0 -32 4 -32 25 0 22 4 25 33 25 17 0 32 3 32 7 0 15 -70 8
-76 -7z"/>
<path d="M2166 1732 c-2 -4 5 -14 17 -22 19 -12 21 -11 10 2 -7 8 -10 18 -6
21 3 4 1 7 -5 7 -6 0 -13 -4 -16 -8z"/>
</g>
</svg>
